; NON-PLATED HOLES START AT T1
; THROUGH (PLATED) HOLES START AT T100
M48
INCH
T100C0.035000
T101C0.038194
T102C0.068569
T103C0.068555
T104C0.015748
T105C0.059055
T106C0.033944
T107C0.038000
T108C0.040000
%
T100
X028713Y035165
X030130Y006165
X027852Y039165
X027852Y035165
X030991Y006165
X031297Y039165
X029575Y033165
X027852Y037165
X029269Y006165
X027547Y006165
X028713Y037165
X027852Y033165
X032158Y039165
X030436Y035165
X028713Y039165
X031297Y033165
X032158Y037165
X030436Y033165
X028408Y006165
X029575Y037165
X030436Y039165
X031852Y006165
X030436Y037165
X031297Y037165
X031297Y035165
X029575Y035165
X032158Y033165
X029575Y039165
X028713Y033165
X032158Y035165
T101
X035452Y010165
X032452Y010165
X037452Y022165
X038452Y028165
X026452Y010165
X031452Y029165
X038452Y021165
X038452Y022165
X033452Y029165
X037452Y028165
X038452Y017165
X031452Y010165
X025452Y010165
X038452Y029165
X023452Y029165
X037452Y025165
X013852Y029165
X036452Y010165
X037452Y013165
X020452Y029165
X037452Y012165
X016852Y029165
X038452Y016165
X037452Y015165
X027452Y029165
X029452Y029165
X033452Y010165
X037452Y019165
X022452Y029165
X037452Y017165
X030452Y029165
X037452Y016165
X009852Y029165
X007852Y029165
X018452Y010165
X037452Y024165
X027452Y010165
X021452Y029165
X029452Y010165
X037452Y021165
X021452Y010165
X038452Y018165
X013452Y010165
X022452Y010165
X037452Y023165
X038452Y014165
X037452Y014165
X023452Y010165
X037452Y018165
X024452Y029165
X024452Y010165
X038452Y023165
X016452Y010165
X012852Y029165
X010852Y029165
X038452Y024165
X025452Y029165
X011852Y029165
X018452Y029165
X038452Y026165
X015852Y029165
X008852Y029165
X032452Y029165
X020452Y010165
X014852Y029165
X028452Y029165
X030452Y010165
X034452Y029165
X017452Y010165
X038452Y019165
X038452Y027165
X037452Y027165
X038452Y020165
X019452Y029165
X038452Y012165
X038452Y015165
X037452Y020165
X011452Y010165
X038452Y013165
X012452Y010165
X037452Y026165
X015452Y010165
X014452Y010165
X037452Y029165
X034452Y010165
X038452Y025165
T102
X015825Y002165
X011820Y037165
X013880Y037165
X017885Y002165
T103
X009795Y037165
X009852Y002165
X013857Y002165
X017827Y037165
X015848Y037165
X019910Y002165
X011878Y002165
X019852Y037165
T104
X029852Y008165
X012840Y034375
X022440Y021655
X030360Y031735
X017372Y008085
X013560Y035335
X009960Y030535
X016200Y035335
X034200Y030535
X033960Y033415
X032520Y011095
X028920Y011095
X030600Y031015
X023640Y020695
X011160Y019975
X027240Y022135
X031560Y017815
X010680Y023095
X005846Y020172
X018360Y032695
X027960Y011095
X019800Y010855
X027852Y008165
X024360Y012535
X017640Y012535
X024840Y020695
X018840Y012535
X012360Y022135
X032040Y013015
X019320Y026695
T105
X002852Y036165
X004852Y036165
T106
X034852Y014164
X033852Y012165
X033852Y013164
X034852Y015165
X033852Y014164
X034852Y013164
X034852Y012165
X033852Y015165
T107
X002852Y021165
X002852Y024165
X002852Y027165
X002852Y019165
X002852Y025165
X002852Y026165
X002852Y020165
T108
X009818Y020884
X016808Y020884
X011808Y020884
X017896Y018445
X020894Y018445
X011843Y018445
X008810Y020884
X015886Y018450
X017861Y020884
X013819Y020879
X010882Y018445
X007891Y018445
X013872Y018444
X020807Y020884
X009887Y018445
X015833Y020885
X018822Y020884
X012896Y018445
X021814Y020884
X021901Y018445
X012815Y020884
X007804Y020884
X010813Y020884
X016889Y018445
X019887Y018445
X014887Y018445
X008898Y018445
X019818Y020884
X018892Y018445
X014818Y020884
T00
M30
