G04 MADE WITH FRITZING*
G04 WWW.FRITZING.ORG*
G04 DOUBLE SIDED*
G04 HOLES PLATED*
G04 CONTOUR ON CENTER OF CONTOUR VECTOR*
%ASAXBY*%
%FSLAX23Y23*%
%MOIN*%
%OFA0B0*%
%SFA1.0B1.0*%
%ADD10C,0.078000*%
%ADD11C,0.099055*%
%ADD12C,0.075000*%
%ADD13C,0.067278*%
%ADD14C,0.072917*%
%ADD15C,0.074000*%
%ADD16C,0.124111*%
%ADD17C,0.124125*%
%ADD18C,0.039370*%
%ADD19R,0.099055X0.099055*%
%ADD20R,0.078000X0.078000*%
%ADD21R,0.075000X0.075000*%
%ADD22R,0.072555X0.072555*%
%ADD23R,0.132161X0.132161*%
%ADD24C,0.024000*%
%ADD25C,0.048000*%
%ADD26R,0.001000X0.001000*%
%LNCOPPER1*%
G90*
G70*
G54D10*
X285Y2717D03*
X285Y2617D03*
X285Y2517D03*
X285Y2417D03*
G54D11*
X285Y3617D03*
X485Y3617D03*
G54D10*
X285Y2117D03*
X285Y2017D03*
X285Y1917D03*
G54D12*
X2785Y3317D03*
X2871Y3317D03*
X2958Y3317D03*
X3044Y3317D03*
X3130Y3317D03*
X3216Y3317D03*
X2785Y3517D03*
X2871Y3517D03*
X2958Y3517D03*
X3044Y3517D03*
X3130Y3517D03*
X3216Y3517D03*
X2785Y3917D03*
X2871Y3917D03*
X2958Y3917D03*
X3044Y3917D03*
X3130Y3917D03*
X3216Y3917D03*
X2785Y3717D03*
X2871Y3717D03*
X2958Y3717D03*
X3044Y3717D03*
X3130Y3717D03*
X3216Y3717D03*
G54D13*
X3385Y1217D03*
X3385Y1316D03*
X3385Y1416D03*
X3385Y1517D03*
X3485Y1217D03*
X3485Y1316D03*
X3485Y1416D03*
X3485Y1517D03*
G54D12*
X3185Y617D03*
X3099Y617D03*
X3013Y617D03*
X2927Y617D03*
X2841Y617D03*
X2755Y617D03*
G54D14*
X3045Y1017D03*
X1445Y1017D03*
X3145Y1017D03*
X3245Y1017D03*
X3345Y1017D03*
X3445Y1017D03*
X3745Y2417D03*
X3545Y1017D03*
X3645Y1017D03*
X1485Y2917D03*
X2045Y1017D03*
X2145Y1017D03*
X2245Y1017D03*
X2345Y1017D03*
X3745Y1617D03*
X2445Y1017D03*
X2545Y1017D03*
X2645Y1017D03*
X2745Y1017D03*
X2245Y2917D03*
X3745Y2817D03*
X3745Y2017D03*
X3745Y1217D03*
X1085Y2917D03*
X1845Y1017D03*
X1845Y2917D03*
X3745Y2617D03*
X3745Y2217D03*
X3745Y1817D03*
X3445Y2917D03*
X3745Y1417D03*
X3345Y2917D03*
X3245Y2917D03*
X3145Y2917D03*
X3045Y2917D03*
X2945Y2917D03*
X2845Y2917D03*
X2745Y2917D03*
X885Y2917D03*
X1285Y2917D03*
X1685Y2917D03*
X1245Y1017D03*
X1645Y1017D03*
X2445Y2917D03*
X2045Y2917D03*
X3745Y2917D03*
X3745Y2717D03*
X3745Y2517D03*
X3745Y2317D03*
X3745Y2117D03*
X3745Y1917D03*
X3745Y1717D03*
X3745Y1517D03*
X3745Y1317D03*
X785Y2917D03*
X985Y2917D03*
X1185Y2917D03*
X1385Y2917D03*
X1585Y2917D03*
X1145Y1017D03*
X1345Y1017D03*
X1545Y1017D03*
X1745Y1017D03*
X2545Y2917D03*
X2345Y2917D03*
X2145Y2917D03*
X1945Y2917D03*
X3845Y2917D03*
X3845Y2817D03*
X3845Y2717D03*
X3845Y2617D03*
X3845Y2517D03*
X3845Y2417D03*
X3845Y2317D03*
X3845Y2217D03*
X3845Y2117D03*
X3845Y2017D03*
X3845Y1917D03*
X3845Y1817D03*
X3845Y1717D03*
X3845Y1617D03*
X3845Y1517D03*
X3845Y1417D03*
X3845Y1317D03*
X3845Y1217D03*
X2945Y1017D03*
G54D15*
X2190Y1845D03*
X2089Y1845D03*
X1989Y1845D03*
X1889Y1845D03*
X1790Y1845D03*
X1689Y1845D03*
X1589Y1845D03*
X1489Y1845D03*
X1387Y1844D03*
X1290Y1845D03*
X1184Y1845D03*
X1088Y1845D03*
X989Y1845D03*
X890Y1845D03*
X789Y1845D03*
G54D16*
X985Y217D03*
X1188Y217D03*
X1386Y217D03*
G54D17*
X1583Y217D03*
X1789Y217D03*
G54D16*
X1991Y217D03*
G54D15*
X780Y2088D03*
X881Y2088D03*
X982Y2088D03*
X1081Y2088D03*
X1181Y2088D03*
X1282Y2088D03*
X1382Y2088D03*
X1482Y2088D03*
X1583Y2089D03*
X1681Y2088D03*
X1786Y2088D03*
X1882Y2088D03*
X1982Y2088D03*
X2081Y2088D03*
X2181Y2088D03*
G54D16*
X1985Y3717D03*
X1783Y3717D03*
X1585Y3717D03*
G54D17*
X1388Y3717D03*
X1182Y3717D03*
G54D16*
X980Y3717D03*
G54D18*
X2724Y2214D03*
X2892Y1110D03*
X3204Y1302D03*
X1236Y2214D03*
X1068Y2310D03*
X3420Y3054D03*
X3252Y1110D03*
X2244Y2166D03*
X1932Y2670D03*
X1764Y1254D03*
X996Y3054D03*
X1836Y3270D03*
X1620Y3534D03*
X1884Y1254D03*
X2436Y1254D03*
X2985Y817D03*
X2785Y817D03*
X3396Y3342D03*
X1284Y3438D03*
X3060Y3102D03*
X1116Y1998D03*
X3036Y3174D03*
X1356Y3534D03*
X1737Y809D03*
X3156Y1782D03*
X2484Y2070D03*
X2796Y1110D03*
X2364Y2070D03*
X1980Y1086D03*
X585Y2017D03*
G54D19*
X285Y3617D03*
G54D20*
X285Y2117D03*
G54D21*
X2785Y3317D03*
X2785Y3517D03*
X2785Y3917D03*
X2785Y3717D03*
X3185Y617D03*
G54D22*
X2191Y1845D03*
G54D23*
X1582Y217D03*
G54D22*
X780Y2088D03*
G54D23*
X1389Y3716D03*
G54D24*
X3511Y1406D02*
X3717Y1327D01*
D02*
X3357Y1216D02*
X1620Y1182D01*
X1620Y1182D02*
X1467Y1037D01*
D02*
X1932Y2651D02*
X1932Y2166D01*
X1932Y2166D02*
X2225Y2166D01*
D02*
X3271Y1113D02*
X3540Y1158D01*
X3540Y1158D02*
X3540Y1278D01*
X3540Y1278D02*
X3508Y1300D01*
D02*
X3357Y1314D02*
X3223Y1303D01*
D02*
X2890Y1091D02*
X2880Y990D01*
X2880Y990D02*
X2916Y942D01*
X2916Y942D02*
X3708Y942D01*
X3708Y942D02*
X3924Y1158D01*
X3924Y1158D02*
X3924Y1254D01*
X3924Y1254D02*
X3869Y1298D01*
D02*
X3263Y2941D02*
X3276Y2958D01*
X3276Y2958D02*
X3276Y3582D01*
X3276Y3582D02*
X3228Y3582D01*
X3228Y3582D02*
X3218Y3688D01*
G54D25*
D02*
X1817Y3686D02*
X1908Y3606D01*
X1908Y3606D02*
X2584Y3516D01*
D02*
X2584Y3516D02*
X2757Y3516D01*
G54D24*
D02*
X2151Y2887D02*
X2292Y2214D01*
X2292Y2214D02*
X2292Y2094D01*
X2292Y2094D02*
X2244Y2022D01*
X2244Y2022D02*
X1932Y2022D01*
X1932Y2022D02*
X1901Y2063D01*
G54D25*
D02*
X2871Y3345D02*
X2871Y3488D01*
D02*
X2030Y3710D02*
X2820Y3594D01*
X2820Y3594D02*
X2868Y3558D01*
X2868Y3558D02*
X2869Y3545D01*
D02*
X2785Y3888D02*
X2785Y3745D01*
D02*
X1020Y3755D02*
X1085Y3816D01*
D02*
X1085Y3816D02*
X1116Y3822D01*
X1116Y3822D02*
X1476Y3822D01*
X1476Y3822D02*
X2796Y3774D01*
X2796Y3774D02*
X2791Y3745D01*
G54D24*
D02*
X2736Y639D02*
X2724Y654D01*
X2724Y654D02*
X2724Y942D01*
X2724Y942D02*
X2004Y942D01*
X2004Y942D02*
X1980Y966D01*
X1980Y966D02*
X1980Y1067D01*
D02*
X2361Y2088D02*
X2249Y2887D01*
G54D25*
D02*
X1224Y3700D02*
X1284Y3678D01*
X1284Y3678D02*
X1284Y3606D01*
X1284Y3606D02*
X1684Y3616D01*
D02*
X1684Y3616D02*
X1860Y3534D01*
X1860Y3534D02*
X2384Y3416D01*
D02*
X2684Y3016D02*
X2628Y2838D01*
D02*
X2384Y3116D02*
X2684Y3016D01*
D02*
X2384Y3416D02*
X2384Y3116D01*
D02*
X2628Y2838D02*
X3584Y2816D01*
D02*
X3584Y2816D02*
X3516Y3102D01*
X3516Y3102D02*
X3324Y3270D01*
X3324Y3270D02*
X3324Y3654D01*
X3324Y3654D02*
X3286Y3816D01*
D02*
X3286Y3816D02*
X2886Y3816D01*
D02*
X2886Y3816D02*
X2877Y3756D01*
G54D24*
D02*
X2705Y2214D02*
X2436Y2214D01*
X2436Y2214D02*
X2412Y1998D01*
X2412Y1998D02*
X2292Y1950D01*
X2292Y1950D02*
X1188Y1950D01*
X1188Y1950D02*
X1110Y1867D01*
D02*
X1004Y2110D02*
X1548Y2646D01*
X1548Y2646D02*
X1548Y2886D01*
X1548Y2886D02*
X1562Y2897D01*
D02*
X1003Y1817D02*
X1020Y1782D01*
X1020Y1782D02*
X3137Y1782D01*
D02*
X2998Y641D02*
X2820Y942D01*
X2820Y942D02*
X2799Y1091D01*
D02*
X2502Y2076D02*
X2772Y2166D01*
X2772Y2166D02*
X2772Y2502D01*
X2772Y2502D02*
X2367Y2895D01*
D02*
X904Y1817D02*
X948Y1734D01*
X948Y1734D02*
X3204Y1734D01*
D02*
X3585Y2616D02*
X3684Y2982D01*
D02*
X3204Y1734D02*
X3585Y2616D01*
D02*
X3684Y2982D02*
X3900Y2982D01*
X3900Y2982D02*
X3924Y1854D01*
X3924Y1854D02*
X3873Y1829D01*
D02*
X3715Y1617D02*
X900Y1674D01*
X900Y1674D02*
X852Y1758D01*
X852Y1758D02*
X732Y1758D01*
X732Y1758D02*
X732Y1878D01*
X732Y1878D02*
X315Y1914D01*
D02*
X901Y2112D02*
X1056Y2295D01*
D02*
X1248Y2228D02*
X1825Y2894D01*
D02*
X3411Y3037D02*
X3360Y2943D01*
D02*
X2912Y592D02*
X2892Y558D01*
X2892Y558D02*
X2700Y558D01*
X2700Y558D02*
X1756Y804D01*
D02*
X1356Y3515D02*
X1356Y3150D01*
X1356Y3150D02*
X1108Y2936D01*
D02*
X3042Y3288D02*
X3037Y3193D01*
D02*
X1488Y2058D02*
X1500Y1998D01*
X1500Y1998D02*
X1135Y1998D01*
D02*
X3142Y3290D02*
X3228Y3102D01*
X3228Y3102D02*
X3079Y3102D01*
D02*
X1267Y3446D02*
X876Y3654D01*
X876Y3654D02*
X785Y3816D01*
D02*
X785Y3816D02*
X885Y3916D01*
D02*
X885Y3916D02*
X2724Y3990D01*
X2724Y3990D02*
X3348Y3990D01*
X3348Y3990D02*
X3395Y3361D01*
D02*
X275Y2388D02*
X204Y2190D01*
X204Y2190D02*
X204Y2046D01*
X204Y2046D02*
X257Y2027D01*
D02*
X2833Y644D02*
X2790Y798D01*
D02*
X3004Y817D02*
X3385Y817D01*
D02*
X3385Y817D02*
X3486Y415D01*
D02*
X3486Y415D02*
X2940Y510D01*
X2940Y510D02*
X2628Y510D01*
X2628Y510D02*
X1483Y616D01*
D02*
X1483Y616D02*
X1483Y814D01*
D02*
X1483Y814D02*
X1536Y988D01*
D02*
X261Y2699D02*
X156Y2622D01*
X156Y2622D02*
X156Y1998D01*
X156Y1998D02*
X204Y1998D01*
X204Y1998D02*
X204Y1878D01*
X204Y1878D02*
X252Y1830D01*
X252Y1830D02*
X684Y1830D01*
X684Y1830D02*
X684Y1710D01*
X684Y1710D02*
X804Y1710D01*
X804Y1710D02*
X852Y1614D01*
X852Y1614D02*
X1668Y1614D01*
X1668Y1614D02*
X1759Y1272D01*
D02*
X2417Y1254D02*
X1903Y1254D01*
D02*
X1632Y3519D02*
X1824Y3284D01*
G54D25*
D02*
X966Y3057D02*
X486Y3116D01*
D02*
X486Y3116D02*
X86Y2919D01*
D02*
X86Y2919D02*
X87Y2616D01*
D02*
X87Y2616D02*
X87Y1414D01*
D02*
X87Y1414D02*
X1286Y416D01*
D02*
X1286Y416D02*
X1360Y267D01*
D02*
X485Y3565D02*
X486Y3116D01*
G54D24*
D02*
X315Y2017D02*
X566Y2017D01*
G54D26*
X972Y3779D02*
X986Y3779D01*
X1174Y3779D02*
X1188Y3779D01*
X1380Y3779D02*
X1394Y3779D01*
X966Y3778D02*
X992Y3778D01*
X1168Y3778D02*
X1194Y3778D01*
X1374Y3778D02*
X1400Y3778D01*
X962Y3777D02*
X996Y3777D01*
X1165Y3777D02*
X1198Y3777D01*
X1371Y3777D02*
X1404Y3777D01*
X959Y3776D02*
X999Y3776D01*
X1161Y3776D02*
X1201Y3776D01*
X1367Y3776D02*
X1407Y3776D01*
X956Y3775D02*
X1002Y3775D01*
X1159Y3775D02*
X1204Y3775D01*
X1365Y3775D02*
X1410Y3775D01*
X954Y3774D02*
X1004Y3774D01*
X1156Y3774D02*
X1206Y3774D01*
X1362Y3774D02*
X1412Y3774D01*
X952Y3773D02*
X1006Y3773D01*
X1154Y3773D02*
X1208Y3773D01*
X1360Y3773D02*
X1414Y3773D01*
X950Y3772D02*
X1008Y3772D01*
X1152Y3772D02*
X1210Y3772D01*
X1358Y3772D02*
X1416Y3772D01*
X948Y3771D02*
X1010Y3771D01*
X1151Y3771D02*
X1212Y3771D01*
X1357Y3771D02*
X1418Y3771D01*
X946Y3770D02*
X1011Y3770D01*
X1149Y3770D02*
X1214Y3770D01*
X1355Y3770D02*
X1420Y3770D01*
X945Y3769D02*
X1013Y3769D01*
X1147Y3769D02*
X1215Y3769D01*
X1353Y3769D02*
X1421Y3769D01*
X943Y3768D02*
X1014Y3768D01*
X1146Y3768D02*
X1217Y3768D01*
X1352Y3768D02*
X1423Y3768D01*
X942Y3767D02*
X1015Y3767D01*
X1145Y3767D02*
X1218Y3767D01*
X1351Y3767D02*
X1424Y3767D01*
X941Y3766D02*
X1017Y3766D01*
X1143Y3766D02*
X1219Y3766D01*
X1349Y3766D02*
X1425Y3766D01*
X939Y3765D02*
X1018Y3765D01*
X1142Y3765D02*
X1221Y3765D01*
X1348Y3765D02*
X1427Y3765D01*
X938Y3764D02*
X1019Y3764D01*
X1141Y3764D02*
X1222Y3764D01*
X1347Y3764D02*
X1428Y3764D01*
X937Y3763D02*
X1020Y3763D01*
X1140Y3763D02*
X1223Y3763D01*
X1346Y3763D02*
X1429Y3763D01*
X936Y3762D02*
X1021Y3762D01*
X1139Y3762D02*
X1224Y3762D01*
X1345Y3762D02*
X1430Y3762D01*
X935Y3761D02*
X1022Y3761D01*
X1138Y3761D02*
X1225Y3761D01*
X1344Y3761D02*
X1431Y3761D01*
X934Y3760D02*
X1023Y3760D01*
X1137Y3760D02*
X1226Y3760D01*
X1343Y3760D02*
X1432Y3760D01*
X933Y3759D02*
X1024Y3759D01*
X1136Y3759D02*
X1227Y3759D01*
X1342Y3759D02*
X1433Y3759D01*
X932Y3758D02*
X1025Y3758D01*
X1135Y3758D02*
X1228Y3758D01*
X1341Y3758D02*
X1434Y3758D01*
X932Y3757D02*
X1026Y3757D01*
X1134Y3757D02*
X1229Y3757D01*
X1340Y3757D02*
X1435Y3757D01*
X931Y3756D02*
X1027Y3756D01*
X1133Y3756D02*
X1229Y3756D01*
X1339Y3756D02*
X1435Y3756D01*
X930Y3755D02*
X1028Y3755D01*
X1133Y3755D02*
X1230Y3755D01*
X1338Y3755D02*
X1436Y3755D01*
X929Y3754D02*
X1028Y3754D01*
X1132Y3754D02*
X1231Y3754D01*
X1338Y3754D02*
X1437Y3754D01*
X929Y3753D02*
X1029Y3753D01*
X1131Y3753D02*
X1232Y3753D01*
X1337Y3753D02*
X1438Y3753D01*
X928Y3752D02*
X1030Y3752D01*
X1130Y3752D02*
X1232Y3752D01*
X1336Y3752D02*
X1438Y3752D01*
X927Y3751D02*
X971Y3751D01*
X987Y3751D02*
X1030Y3751D01*
X1130Y3751D02*
X1173Y3751D01*
X1189Y3751D02*
X1233Y3751D01*
X1336Y3751D02*
X1379Y3751D01*
X1395Y3751D02*
X1439Y3751D01*
X927Y3750D02*
X967Y3750D01*
X990Y3750D02*
X1031Y3750D01*
X1129Y3750D02*
X1170Y3750D01*
X1193Y3750D02*
X1234Y3750D01*
X1335Y3750D02*
X1376Y3750D01*
X1399Y3750D02*
X1439Y3750D01*
X926Y3749D02*
X965Y3749D01*
X993Y3749D02*
X1032Y3749D01*
X1128Y3749D02*
X1167Y3749D01*
X1195Y3749D02*
X1234Y3749D01*
X1334Y3749D02*
X1373Y3749D01*
X1401Y3749D02*
X1440Y3749D01*
X925Y3748D02*
X963Y3748D01*
X995Y3748D02*
X1032Y3748D01*
X1128Y3748D02*
X1165Y3748D01*
X1197Y3748D02*
X1235Y3748D01*
X1334Y3748D02*
X1371Y3748D01*
X1403Y3748D02*
X1441Y3748D01*
X925Y3747D02*
X961Y3747D01*
X997Y3747D02*
X1033Y3747D01*
X1127Y3747D02*
X1163Y3747D01*
X1199Y3747D02*
X1235Y3747D01*
X1333Y3747D02*
X1369Y3747D01*
X1405Y3747D02*
X1441Y3747D01*
X924Y3746D02*
X959Y3746D01*
X998Y3746D02*
X1033Y3746D01*
X1127Y3746D02*
X1162Y3746D01*
X1201Y3746D02*
X1236Y3746D01*
X1333Y3746D02*
X1368Y3746D01*
X1407Y3746D02*
X1442Y3746D01*
X924Y3745D02*
X958Y3745D01*
X1000Y3745D02*
X1034Y3745D01*
X1126Y3745D02*
X1160Y3745D01*
X1202Y3745D02*
X1236Y3745D01*
X1332Y3745D02*
X1366Y3745D01*
X1408Y3745D02*
X1442Y3745D01*
X923Y3744D02*
X957Y3744D01*
X1001Y3744D02*
X1034Y3744D01*
X1126Y3744D02*
X1159Y3744D01*
X1204Y3744D02*
X1237Y3744D01*
X1332Y3744D02*
X1365Y3744D01*
X1410Y3744D02*
X1443Y3744D01*
X923Y3743D02*
X955Y3743D01*
X1002Y3743D02*
X1035Y3743D01*
X1125Y3743D02*
X1158Y3743D01*
X1205Y3743D02*
X1237Y3743D01*
X1331Y3743D02*
X1364Y3743D01*
X1411Y3743D02*
X1443Y3743D01*
X922Y3742D02*
X954Y3742D01*
X1003Y3742D02*
X1035Y3742D01*
X1125Y3742D02*
X1157Y3742D01*
X1206Y3742D02*
X1238Y3742D01*
X1331Y3742D02*
X1363Y3742D01*
X1412Y3742D02*
X1444Y3742D01*
X922Y3741D02*
X953Y3741D01*
X1004Y3741D02*
X1036Y3741D01*
X1124Y3741D02*
X1156Y3741D01*
X1207Y3741D02*
X1238Y3741D01*
X1330Y3741D02*
X1362Y3741D01*
X1413Y3741D02*
X1444Y3741D01*
X922Y3740D02*
X952Y3740D01*
X1005Y3740D02*
X1036Y3740D01*
X1124Y3740D02*
X1155Y3740D01*
X1208Y3740D02*
X1239Y3740D01*
X1330Y3740D02*
X1361Y3740D01*
X1414Y3740D02*
X1445Y3740D01*
X921Y3739D02*
X952Y3739D01*
X1006Y3739D02*
X1036Y3739D01*
X1124Y3739D02*
X1154Y3739D01*
X1209Y3739D02*
X1239Y3739D01*
X1330Y3739D02*
X1360Y3739D01*
X1414Y3739D02*
X1445Y3739D01*
X921Y3738D02*
X951Y3738D01*
X1007Y3738D02*
X1037Y3738D01*
X1123Y3738D02*
X1153Y3738D01*
X1209Y3738D02*
X1239Y3738D01*
X1329Y3738D02*
X1359Y3738D01*
X1415Y3738D02*
X1445Y3738D01*
X920Y3737D02*
X950Y3737D01*
X1008Y3737D02*
X1037Y3737D01*
X1123Y3737D02*
X1153Y3737D01*
X1210Y3737D02*
X1240Y3737D01*
X1329Y3737D02*
X1359Y3737D01*
X1416Y3737D02*
X1446Y3737D01*
X920Y3736D02*
X949Y3736D01*
X1008Y3736D02*
X1037Y3736D01*
X1123Y3736D02*
X1152Y3736D01*
X1211Y3736D02*
X1240Y3736D01*
X1329Y3736D02*
X1358Y3736D01*
X1417Y3736D02*
X1446Y3736D01*
X920Y3735D02*
X949Y3735D01*
X1009Y3735D02*
X1038Y3735D01*
X1122Y3735D02*
X1151Y3735D01*
X1211Y3735D02*
X1240Y3735D01*
X1328Y3735D02*
X1357Y3735D01*
X1417Y3735D02*
X1446Y3735D01*
X920Y3734D02*
X948Y3734D01*
X1009Y3734D02*
X1038Y3734D01*
X1122Y3734D02*
X1151Y3734D01*
X1212Y3734D02*
X1241Y3734D01*
X1328Y3734D02*
X1357Y3734D01*
X1418Y3734D02*
X1446Y3734D01*
X919Y3733D02*
X948Y3733D01*
X1010Y3733D02*
X1038Y3733D01*
X1122Y3733D02*
X1150Y3733D01*
X1212Y3733D02*
X1241Y3733D01*
X1328Y3733D02*
X1356Y3733D01*
X1418Y3733D02*
X1447Y3733D01*
X919Y3732D02*
X947Y3732D01*
X1010Y3732D02*
X1038Y3732D01*
X1122Y3732D02*
X1150Y3732D01*
X1213Y3732D02*
X1241Y3732D01*
X1328Y3732D02*
X1356Y3732D01*
X1419Y3732D02*
X1447Y3732D01*
X919Y3731D02*
X947Y3731D01*
X1011Y3731D02*
X1039Y3731D01*
X1121Y3731D02*
X1149Y3731D01*
X1213Y3731D02*
X1241Y3731D01*
X1327Y3731D02*
X1355Y3731D01*
X1419Y3731D02*
X1447Y3731D01*
X919Y3730D02*
X946Y3730D01*
X1011Y3730D02*
X1039Y3730D01*
X1121Y3730D02*
X1149Y3730D01*
X1214Y3730D02*
X1242Y3730D01*
X1327Y3730D02*
X1355Y3730D01*
X1420Y3730D02*
X1447Y3730D01*
X918Y3729D02*
X946Y3729D01*
X1012Y3729D02*
X1039Y3729D01*
X1121Y3729D02*
X1149Y3729D01*
X1214Y3729D02*
X1242Y3729D01*
X1327Y3729D02*
X1355Y3729D01*
X1420Y3729D02*
X1448Y3729D01*
X918Y3728D02*
X946Y3728D01*
X1012Y3728D02*
X1039Y3728D01*
X1121Y3728D02*
X1148Y3728D01*
X1214Y3728D02*
X1242Y3728D01*
X1327Y3728D02*
X1354Y3728D01*
X1420Y3728D02*
X1448Y3728D01*
X918Y3727D02*
X945Y3727D01*
X1012Y3727D02*
X1039Y3727D01*
X1121Y3727D02*
X1148Y3727D01*
X1215Y3727D02*
X1242Y3727D01*
X1327Y3727D02*
X1354Y3727D01*
X1421Y3727D02*
X1448Y3727D01*
X918Y3726D02*
X945Y3726D01*
X1013Y3726D02*
X1040Y3726D01*
X1120Y3726D02*
X1148Y3726D01*
X1215Y3726D02*
X1242Y3726D01*
X1326Y3726D02*
X1354Y3726D01*
X1421Y3726D02*
X1448Y3726D01*
X918Y3725D02*
X945Y3725D01*
X1013Y3725D02*
X1040Y3725D01*
X1120Y3725D02*
X1147Y3725D01*
X1215Y3725D02*
X1242Y3725D01*
X1326Y3725D02*
X1353Y3725D01*
X1421Y3725D02*
X1448Y3725D01*
X918Y3724D02*
X945Y3724D01*
X1013Y3724D02*
X1040Y3724D01*
X1120Y3724D02*
X1147Y3724D01*
X1216Y3724D02*
X1242Y3724D01*
X1326Y3724D02*
X1353Y3724D01*
X1421Y3724D02*
X1448Y3724D01*
X918Y3723D02*
X944Y3723D01*
X1013Y3723D02*
X1040Y3723D01*
X1120Y3723D02*
X1147Y3723D01*
X1216Y3723D02*
X1243Y3723D01*
X1326Y3723D02*
X1353Y3723D01*
X1422Y3723D02*
X1449Y3723D01*
X918Y3722D02*
X944Y3722D01*
X1013Y3722D02*
X1040Y3722D01*
X1120Y3722D02*
X1147Y3722D01*
X1216Y3722D02*
X1243Y3722D01*
X1326Y3722D02*
X1353Y3722D01*
X1422Y3722D02*
X1449Y3722D01*
X917Y3721D02*
X944Y3721D01*
X1013Y3721D02*
X1040Y3721D01*
X1120Y3721D02*
X1147Y3721D01*
X1216Y3721D02*
X1243Y3721D01*
X1326Y3721D02*
X1353Y3721D01*
X1422Y3721D02*
X1449Y3721D01*
X917Y3720D02*
X944Y3720D01*
X1013Y3720D02*
X1040Y3720D01*
X1120Y3720D02*
X1147Y3720D01*
X1216Y3720D02*
X1243Y3720D01*
X1326Y3720D02*
X1353Y3720D01*
X1422Y3720D02*
X1449Y3720D01*
X917Y3719D02*
X944Y3719D01*
X1014Y3719D02*
X1040Y3719D01*
X1120Y3719D02*
X1147Y3719D01*
X1216Y3719D02*
X1243Y3719D01*
X1326Y3719D02*
X1353Y3719D01*
X1422Y3719D02*
X1449Y3719D01*
X917Y3718D02*
X944Y3718D01*
X1014Y3718D02*
X1040Y3718D01*
X1120Y3718D02*
X1147Y3718D01*
X1216Y3718D02*
X1243Y3718D01*
X1326Y3718D02*
X1353Y3718D01*
X1422Y3718D02*
X1449Y3718D01*
X917Y3717D02*
X944Y3717D01*
X1014Y3717D02*
X1040Y3717D01*
X1120Y3717D02*
X1147Y3717D01*
X1216Y3717D02*
X1243Y3717D01*
X1326Y3717D02*
X1353Y3717D01*
X1422Y3717D02*
X1449Y3717D01*
X917Y3716D02*
X944Y3716D01*
X1014Y3716D02*
X1040Y3716D01*
X1120Y3716D02*
X1147Y3716D01*
X1216Y3716D02*
X1243Y3716D01*
X1326Y3716D02*
X1353Y3716D01*
X1422Y3716D02*
X1449Y3716D01*
X917Y3715D02*
X944Y3715D01*
X1013Y3715D02*
X1040Y3715D01*
X1120Y3715D02*
X1147Y3715D01*
X1216Y3715D02*
X1243Y3715D01*
X1326Y3715D02*
X1353Y3715D01*
X1422Y3715D02*
X1449Y3715D01*
X917Y3714D02*
X944Y3714D01*
X1013Y3714D02*
X1040Y3714D01*
X1120Y3714D02*
X1147Y3714D01*
X1216Y3714D02*
X1243Y3714D01*
X1326Y3714D02*
X1353Y3714D01*
X1422Y3714D02*
X1449Y3714D01*
X918Y3713D02*
X944Y3713D01*
X1013Y3713D02*
X1040Y3713D01*
X1120Y3713D02*
X1147Y3713D01*
X1216Y3713D02*
X1243Y3713D01*
X1326Y3713D02*
X1353Y3713D01*
X1422Y3713D02*
X1449Y3713D01*
X918Y3712D02*
X944Y3712D01*
X1013Y3712D02*
X1040Y3712D01*
X1120Y3712D02*
X1147Y3712D01*
X1216Y3712D02*
X1243Y3712D01*
X1326Y3712D02*
X1353Y3712D01*
X1422Y3712D02*
X1449Y3712D01*
X918Y3711D02*
X945Y3711D01*
X1013Y3711D02*
X1040Y3711D01*
X1120Y3711D02*
X1147Y3711D01*
X1216Y3711D02*
X1242Y3711D01*
X1326Y3711D02*
X1353Y3711D01*
X1421Y3711D02*
X1448Y3711D01*
X918Y3710D02*
X945Y3710D01*
X1013Y3710D02*
X1040Y3710D01*
X1120Y3710D02*
X1147Y3710D01*
X1215Y3710D02*
X1242Y3710D01*
X1326Y3710D02*
X1353Y3710D01*
X1421Y3710D02*
X1448Y3710D01*
X918Y3709D02*
X945Y3709D01*
X1013Y3709D02*
X1040Y3709D01*
X1120Y3709D02*
X1148Y3709D01*
X1215Y3709D02*
X1242Y3709D01*
X1326Y3709D02*
X1354Y3709D01*
X1421Y3709D02*
X1448Y3709D01*
X918Y3708D02*
X945Y3708D01*
X1012Y3708D02*
X1039Y3708D01*
X1121Y3708D02*
X1148Y3708D01*
X1215Y3708D02*
X1242Y3708D01*
X1327Y3708D02*
X1354Y3708D01*
X1421Y3708D02*
X1448Y3708D01*
X918Y3707D02*
X946Y3707D01*
X1012Y3707D02*
X1039Y3707D01*
X1121Y3707D02*
X1148Y3707D01*
X1214Y3707D02*
X1242Y3707D01*
X1327Y3707D02*
X1354Y3707D01*
X1420Y3707D02*
X1448Y3707D01*
X918Y3706D02*
X946Y3706D01*
X1012Y3706D02*
X1039Y3706D01*
X1121Y3706D02*
X1148Y3706D01*
X1214Y3706D02*
X1242Y3706D01*
X1327Y3706D02*
X1354Y3706D01*
X1420Y3706D02*
X1448Y3706D01*
X919Y3705D02*
X946Y3705D01*
X1011Y3705D02*
X1039Y3705D01*
X1121Y3705D02*
X1149Y3705D01*
X1214Y3705D02*
X1242Y3705D01*
X1327Y3705D02*
X1355Y3705D01*
X1420Y3705D02*
X1447Y3705D01*
X919Y3704D02*
X947Y3704D01*
X1011Y3704D02*
X1039Y3704D01*
X1121Y3704D02*
X1149Y3704D01*
X1213Y3704D02*
X1241Y3704D01*
X1327Y3704D02*
X1355Y3704D01*
X1419Y3704D02*
X1447Y3704D01*
X919Y3703D02*
X947Y3703D01*
X1010Y3703D02*
X1039Y3703D01*
X1122Y3703D02*
X1150Y3703D01*
X1213Y3703D02*
X1241Y3703D01*
X1328Y3703D02*
X1356Y3703D01*
X1419Y3703D02*
X1447Y3703D01*
X919Y3702D02*
X948Y3702D01*
X1010Y3702D02*
X1038Y3702D01*
X1122Y3702D02*
X1150Y3702D01*
X1212Y3702D02*
X1241Y3702D01*
X1328Y3702D02*
X1356Y3702D01*
X1418Y3702D02*
X1447Y3702D01*
X920Y3701D02*
X948Y3701D01*
X1009Y3701D02*
X1038Y3701D01*
X1122Y3701D02*
X1151Y3701D01*
X1212Y3701D02*
X1241Y3701D01*
X1328Y3701D02*
X1357Y3701D01*
X1418Y3701D02*
X1446Y3701D01*
X920Y3700D02*
X949Y3700D01*
X1009Y3700D02*
X1038Y3700D01*
X1122Y3700D02*
X1151Y3700D01*
X1211Y3700D02*
X1240Y3700D01*
X1328Y3700D02*
X1357Y3700D01*
X1417Y3700D02*
X1446Y3700D01*
X920Y3699D02*
X949Y3699D01*
X1008Y3699D02*
X1037Y3699D01*
X1123Y3699D02*
X1152Y3699D01*
X1211Y3699D02*
X1240Y3699D01*
X1329Y3699D02*
X1358Y3699D01*
X1417Y3699D02*
X1446Y3699D01*
X920Y3698D02*
X950Y3698D01*
X1008Y3698D02*
X1037Y3698D01*
X1123Y3698D02*
X1153Y3698D01*
X1210Y3698D02*
X1240Y3698D01*
X1329Y3698D02*
X1359Y3698D01*
X1416Y3698D02*
X1446Y3698D01*
X921Y3697D02*
X951Y3697D01*
X1007Y3697D02*
X1037Y3697D01*
X1123Y3697D02*
X1153Y3697D01*
X1209Y3697D02*
X1239Y3697D01*
X1329Y3697D02*
X1359Y3697D01*
X1415Y3697D02*
X1445Y3697D01*
X921Y3696D02*
X952Y3696D01*
X1006Y3696D02*
X1036Y3696D01*
X1124Y3696D02*
X1154Y3696D01*
X1209Y3696D02*
X1239Y3696D01*
X1330Y3696D02*
X1360Y3696D01*
X1415Y3696D02*
X1445Y3696D01*
X922Y3695D02*
X952Y3695D01*
X1005Y3695D02*
X1036Y3695D01*
X1124Y3695D02*
X1155Y3695D01*
X1208Y3695D02*
X1239Y3695D01*
X1330Y3695D02*
X1361Y3695D01*
X1414Y3695D02*
X1445Y3695D01*
X922Y3694D02*
X953Y3694D01*
X1004Y3694D02*
X1036Y3694D01*
X1124Y3694D02*
X1156Y3694D01*
X1207Y3694D02*
X1238Y3694D01*
X1330Y3694D02*
X1362Y3694D01*
X1413Y3694D02*
X1444Y3694D01*
X922Y3693D02*
X954Y3693D01*
X1003Y3693D02*
X1035Y3693D01*
X1125Y3693D02*
X1157Y3693D01*
X1206Y3693D02*
X1238Y3693D01*
X1331Y3693D02*
X1363Y3693D01*
X1412Y3693D02*
X1444Y3693D01*
X923Y3692D02*
X955Y3692D01*
X1002Y3692D02*
X1035Y3692D01*
X1125Y3692D02*
X1158Y3692D01*
X1205Y3692D02*
X1237Y3692D01*
X1331Y3692D02*
X1364Y3692D01*
X1411Y3692D02*
X1443Y3692D01*
X923Y3691D02*
X956Y3691D01*
X1001Y3691D02*
X1034Y3691D01*
X1126Y3691D02*
X1159Y3691D01*
X1204Y3691D02*
X1237Y3691D01*
X1332Y3691D02*
X1365Y3691D01*
X1410Y3691D02*
X1443Y3691D01*
X924Y3690D02*
X958Y3690D01*
X1000Y3690D02*
X1034Y3690D01*
X1126Y3690D02*
X1160Y3690D01*
X1202Y3690D02*
X1236Y3690D01*
X1332Y3690D02*
X1366Y3690D01*
X1408Y3690D02*
X1442Y3690D01*
X924Y3689D02*
X959Y3689D01*
X998Y3689D02*
X1033Y3689D01*
X1127Y3689D02*
X1162Y3689D01*
X1201Y3689D02*
X1236Y3689D01*
X1333Y3689D02*
X1368Y3689D01*
X1407Y3689D02*
X1442Y3689D01*
X925Y3688D02*
X961Y3688D01*
X997Y3688D02*
X1033Y3688D01*
X1127Y3688D02*
X1163Y3688D01*
X1199Y3688D02*
X1235Y3688D01*
X1333Y3688D02*
X1369Y3688D01*
X1405Y3688D02*
X1441Y3688D01*
X925Y3687D02*
X963Y3687D01*
X995Y3687D02*
X1032Y3687D01*
X1128Y3687D02*
X1165Y3687D01*
X1197Y3687D02*
X1235Y3687D01*
X1334Y3687D02*
X1371Y3687D01*
X1403Y3687D02*
X1441Y3687D01*
X926Y3686D02*
X965Y3686D01*
X993Y3686D02*
X1032Y3686D01*
X1128Y3686D02*
X1167Y3686D01*
X1195Y3686D02*
X1234Y3686D01*
X1334Y3686D02*
X1373Y3686D01*
X1401Y3686D02*
X1440Y3686D01*
X927Y3685D02*
X967Y3685D01*
X990Y3685D02*
X1031Y3685D01*
X1129Y3685D02*
X1170Y3685D01*
X1193Y3685D02*
X1234Y3685D01*
X1335Y3685D02*
X1376Y3685D01*
X1399Y3685D02*
X1440Y3685D01*
X927Y3684D02*
X971Y3684D01*
X987Y3684D02*
X1030Y3684D01*
X1130Y3684D02*
X1173Y3684D01*
X1189Y3684D02*
X1233Y3684D01*
X1336Y3684D02*
X1379Y3684D01*
X1395Y3684D02*
X1439Y3684D01*
X928Y3683D02*
X1030Y3683D01*
X1130Y3683D02*
X1232Y3683D01*
X1336Y3683D02*
X1438Y3683D01*
X928Y3682D02*
X1029Y3682D01*
X1131Y3682D02*
X1232Y3682D01*
X1337Y3682D02*
X1438Y3682D01*
X929Y3681D02*
X1028Y3681D01*
X1132Y3681D02*
X1231Y3681D01*
X1338Y3681D02*
X1437Y3681D01*
X930Y3680D02*
X1028Y3680D01*
X1132Y3680D02*
X1230Y3680D01*
X1338Y3680D02*
X1436Y3680D01*
X931Y3679D02*
X1027Y3679D01*
X1133Y3679D02*
X1229Y3679D01*
X1339Y3679D02*
X1435Y3679D01*
X931Y3678D02*
X1026Y3678D01*
X1134Y3678D02*
X1229Y3678D01*
X1340Y3678D02*
X1435Y3678D01*
X932Y3677D02*
X1025Y3677D01*
X1135Y3677D02*
X1228Y3677D01*
X1341Y3677D02*
X1434Y3677D01*
X933Y3676D02*
X1024Y3676D01*
X1136Y3676D02*
X1227Y3676D01*
X1342Y3676D02*
X1433Y3676D01*
X934Y3675D02*
X1023Y3675D01*
X1137Y3675D02*
X1226Y3675D01*
X1343Y3675D02*
X1432Y3675D01*
X935Y3674D02*
X1023Y3674D01*
X1138Y3674D02*
X1225Y3674D01*
X1344Y3674D02*
X1431Y3674D01*
X936Y3673D02*
X1022Y3673D01*
X1139Y3673D02*
X1224Y3673D01*
X1345Y3673D02*
X1430Y3673D01*
X937Y3672D02*
X1020Y3672D01*
X1140Y3672D02*
X1223Y3672D01*
X1346Y3672D02*
X1429Y3672D01*
X938Y3671D02*
X1019Y3671D01*
X1141Y3671D02*
X1222Y3671D01*
X1347Y3671D02*
X1428Y3671D01*
X939Y3670D02*
X1018Y3670D01*
X1142Y3670D02*
X1221Y3670D01*
X1348Y3670D02*
X1427Y3670D01*
X941Y3669D02*
X1017Y3669D01*
X1143Y3669D02*
X1219Y3669D01*
X1349Y3669D02*
X1425Y3669D01*
X942Y3668D02*
X1016Y3668D01*
X1145Y3668D02*
X1218Y3668D01*
X1351Y3668D02*
X1424Y3668D01*
X943Y3667D02*
X1014Y3667D01*
X1146Y3667D02*
X1217Y3667D01*
X1352Y3667D02*
X1423Y3667D01*
X945Y3666D02*
X1013Y3666D01*
X1147Y3666D02*
X1215Y3666D01*
X1353Y3666D02*
X1421Y3666D01*
X946Y3665D02*
X1011Y3665D01*
X1149Y3665D02*
X1214Y3665D01*
X1355Y3665D02*
X1420Y3665D01*
X948Y3664D02*
X1010Y3664D01*
X1151Y3664D02*
X1212Y3664D01*
X1356Y3664D02*
X1418Y3664D01*
X950Y3663D02*
X1008Y3663D01*
X1152Y3663D02*
X1210Y3663D01*
X1358Y3663D02*
X1416Y3663D01*
X952Y3662D02*
X1006Y3662D01*
X1154Y3662D02*
X1208Y3662D01*
X1360Y3662D02*
X1414Y3662D01*
X954Y3661D02*
X1004Y3661D01*
X1156Y3661D02*
X1206Y3661D01*
X1362Y3661D02*
X1412Y3661D01*
X956Y3660D02*
X1002Y3660D01*
X1158Y3660D02*
X1204Y3660D01*
X1364Y3660D02*
X1410Y3660D01*
X959Y3659D02*
X999Y3659D01*
X1161Y3659D02*
X1201Y3659D01*
X1367Y3659D02*
X1407Y3659D01*
X962Y3658D02*
X996Y3658D01*
X1164Y3658D02*
X1198Y3658D01*
X1370Y3658D02*
X1404Y3658D01*
X966Y3657D02*
X992Y3657D01*
X1168Y3657D02*
X1194Y3657D01*
X1374Y3657D02*
X1400Y3657D01*
X972Y3656D02*
X986Y3656D01*
X1174Y3656D02*
X1188Y3656D01*
X1380Y3656D02*
X1394Y3656D01*
X1582Y280D02*
X1582Y280D01*
X1788Y280D02*
X1788Y280D01*
X1990Y280D02*
X1990Y280D01*
X1572Y279D02*
X1592Y279D01*
X1778Y279D02*
X1798Y279D01*
X1980Y279D02*
X2000Y279D01*
X1567Y278D02*
X1596Y278D01*
X1773Y278D02*
X1802Y278D01*
X1975Y278D02*
X2005Y278D01*
X1563Y277D02*
X1600Y277D01*
X1769Y277D02*
X1806Y277D01*
X1972Y277D02*
X2009Y277D01*
X1560Y276D02*
X1603Y276D01*
X1766Y276D02*
X1809Y276D01*
X1969Y276D02*
X2011Y276D01*
X1558Y275D02*
X1606Y275D01*
X1764Y275D02*
X1812Y275D01*
X1966Y275D02*
X2014Y275D01*
X1556Y274D02*
X1608Y274D01*
X1762Y274D02*
X1814Y274D01*
X1964Y274D02*
X2016Y274D01*
X1554Y273D02*
X1610Y273D01*
X1760Y273D02*
X1816Y273D01*
X1962Y273D02*
X2018Y273D01*
X1552Y272D02*
X1612Y272D01*
X1758Y272D02*
X1818Y272D01*
X1960Y272D02*
X2020Y272D01*
X1550Y271D02*
X1613Y271D01*
X1756Y271D02*
X1819Y271D01*
X1959Y271D02*
X2022Y271D01*
X1549Y270D02*
X1615Y270D01*
X1754Y270D02*
X1821Y270D01*
X1957Y270D02*
X2023Y270D01*
X1547Y269D02*
X1616Y269D01*
X1753Y269D02*
X1822Y269D01*
X1955Y269D02*
X2025Y269D01*
X1546Y268D02*
X1618Y268D01*
X1752Y268D02*
X1824Y268D01*
X1954Y268D02*
X2026Y268D01*
X1544Y267D02*
X1619Y267D01*
X1750Y267D02*
X1825Y267D01*
X1953Y267D02*
X2028Y267D01*
X1543Y266D02*
X1620Y266D01*
X1749Y266D02*
X1826Y266D01*
X1951Y266D02*
X2029Y266D01*
X1542Y265D02*
X1622Y265D01*
X1748Y265D02*
X1828Y265D01*
X1950Y265D02*
X2030Y265D01*
X1541Y264D02*
X1623Y264D01*
X1747Y264D02*
X1829Y264D01*
X1949Y264D02*
X2031Y264D01*
X1540Y263D02*
X1624Y263D01*
X1746Y263D02*
X1830Y263D01*
X1948Y263D02*
X2032Y263D01*
X1538Y262D02*
X1625Y262D01*
X1744Y262D02*
X1831Y262D01*
X1947Y262D02*
X2033Y262D01*
X1538Y261D02*
X1626Y261D01*
X1743Y261D02*
X1832Y261D01*
X1946Y261D02*
X2034Y261D01*
X1537Y260D02*
X1627Y260D01*
X1743Y260D02*
X1833Y260D01*
X1945Y260D02*
X2035Y260D01*
X1536Y259D02*
X1628Y259D01*
X1742Y259D02*
X1834Y259D01*
X1944Y259D02*
X2036Y259D01*
X1535Y258D02*
X1629Y258D01*
X1741Y258D02*
X1835Y258D01*
X1943Y258D02*
X2037Y258D01*
X1534Y257D02*
X1629Y257D01*
X1740Y257D02*
X1835Y257D01*
X1942Y257D02*
X2038Y257D01*
X1533Y256D02*
X1630Y256D01*
X1739Y256D02*
X1836Y256D01*
X1942Y256D02*
X2039Y256D01*
X1533Y255D02*
X1631Y255D01*
X1738Y255D02*
X1837Y255D01*
X1941Y255D02*
X2039Y255D01*
X1532Y254D02*
X1632Y254D01*
X1738Y254D02*
X1838Y254D01*
X1940Y254D02*
X2040Y254D01*
X1531Y253D02*
X1632Y253D01*
X1737Y253D02*
X1838Y253D01*
X1940Y253D02*
X2041Y253D01*
X1530Y252D02*
X1577Y252D01*
X1587Y252D02*
X1633Y252D01*
X1736Y252D02*
X1783Y252D01*
X1793Y252D02*
X1839Y252D01*
X1939Y252D02*
X1985Y252D01*
X1995Y252D02*
X2041Y252D01*
X1530Y251D02*
X1572Y251D01*
X1592Y251D02*
X1634Y251D01*
X1736Y251D02*
X1778Y251D01*
X1797Y251D02*
X1840Y251D01*
X1938Y251D02*
X1980Y251D01*
X2000Y251D02*
X2042Y251D01*
X1529Y250D02*
X1569Y250D01*
X1594Y250D02*
X1634Y250D01*
X1735Y250D02*
X1775Y250D01*
X1800Y250D02*
X1840Y250D01*
X1938Y250D02*
X1977Y250D01*
X2003Y250D02*
X2043Y250D01*
X1529Y249D02*
X1567Y249D01*
X1597Y249D02*
X1635Y249D01*
X1735Y249D02*
X1773Y249D01*
X1803Y249D02*
X1841Y249D01*
X1937Y249D02*
X1975Y249D01*
X2005Y249D02*
X2043Y249D01*
X1528Y248D02*
X1565Y248D01*
X1599Y248D02*
X1635Y248D01*
X1734Y248D02*
X1771Y248D01*
X1805Y248D02*
X1841Y248D01*
X1936Y248D02*
X1973Y248D01*
X2007Y248D02*
X2044Y248D01*
X1527Y247D02*
X1563Y247D01*
X1601Y247D02*
X1636Y247D01*
X1733Y247D02*
X1769Y247D01*
X1806Y247D02*
X1842Y247D01*
X1936Y247D02*
X1971Y247D01*
X2009Y247D02*
X2044Y247D01*
X1527Y246D02*
X1561Y246D01*
X1602Y246D02*
X1636Y246D01*
X1733Y246D02*
X1767Y246D01*
X1808Y246D02*
X1842Y246D01*
X1935Y246D02*
X1970Y246D01*
X2010Y246D02*
X2045Y246D01*
X1526Y245D02*
X1560Y245D01*
X1603Y245D02*
X1637Y245D01*
X1732Y245D02*
X1766Y245D01*
X1809Y245D02*
X1843Y245D01*
X1935Y245D02*
X1969Y245D01*
X2012Y245D02*
X2045Y245D01*
X1526Y244D02*
X1559Y244D01*
X1605Y244D02*
X1637Y244D01*
X1732Y244D02*
X1765Y244D01*
X1810Y244D02*
X1843Y244D01*
X1934Y244D02*
X1967Y244D01*
X2013Y244D02*
X2046Y244D01*
X1525Y243D02*
X1558Y243D01*
X1606Y243D02*
X1638Y243D01*
X1731Y243D02*
X1764Y243D01*
X1812Y243D02*
X1844Y243D01*
X1934Y243D02*
X1966Y243D01*
X2014Y243D02*
X2046Y243D01*
X1525Y242D02*
X1557Y242D01*
X1607Y242D02*
X1638Y242D01*
X1731Y242D02*
X1763Y242D01*
X1813Y242D02*
X1844Y242D01*
X1933Y242D02*
X1965Y242D01*
X2015Y242D02*
X2047Y242D01*
X1525Y241D02*
X1556Y241D01*
X1608Y241D02*
X1639Y241D01*
X1731Y241D02*
X1762Y241D01*
X1814Y241D02*
X1845Y241D01*
X1933Y241D02*
X1964Y241D01*
X2016Y241D02*
X2047Y241D01*
X1524Y240D02*
X1555Y240D01*
X1608Y240D02*
X1639Y240D01*
X1730Y240D02*
X1761Y240D01*
X1814Y240D02*
X1845Y240D01*
X1933Y240D02*
X1963Y240D01*
X2017Y240D02*
X2048Y240D01*
X1524Y239D02*
X1554Y239D01*
X1609Y239D02*
X1639Y239D01*
X1730Y239D02*
X1760Y239D01*
X1815Y239D02*
X1845Y239D01*
X1932Y239D02*
X1963Y239D01*
X2018Y239D02*
X2048Y239D01*
X1524Y238D02*
X1553Y238D01*
X1610Y238D02*
X1640Y238D01*
X1729Y238D02*
X1759Y238D01*
X1816Y238D02*
X1846Y238D01*
X1932Y238D02*
X1962Y238D01*
X2019Y238D02*
X2048Y238D01*
X1523Y237D02*
X1553Y237D01*
X1611Y237D02*
X1640Y237D01*
X1729Y237D02*
X1759Y237D01*
X1817Y237D02*
X1846Y237D01*
X1932Y237D02*
X1961Y237D01*
X2019Y237D02*
X2049Y237D01*
X1523Y236D02*
X1552Y236D01*
X1611Y236D02*
X1641Y236D01*
X1729Y236D02*
X1758Y236D01*
X1817Y236D02*
X1846Y236D01*
X1931Y236D02*
X1960Y236D01*
X2020Y236D02*
X2049Y236D01*
X1523Y235D02*
X1551Y235D01*
X1612Y235D02*
X1641Y235D01*
X1729Y235D02*
X1757Y235D01*
X1818Y235D02*
X1847Y235D01*
X1931Y235D02*
X1960Y235D01*
X2020Y235D02*
X2049Y235D01*
X1522Y234D02*
X1551Y234D01*
X1613Y234D02*
X1641Y234D01*
X1728Y234D02*
X1757Y234D01*
X1818Y234D02*
X1847Y234D01*
X1931Y234D02*
X1959Y234D01*
X2021Y234D02*
X2049Y234D01*
X1522Y233D02*
X1550Y233D01*
X1613Y233D02*
X1641Y233D01*
X1728Y233D02*
X1756Y233D01*
X1819Y233D02*
X1847Y233D01*
X1931Y233D02*
X1959Y233D01*
X2021Y233D02*
X2050Y233D01*
X1522Y232D02*
X1550Y232D01*
X1613Y232D02*
X1642Y232D01*
X1728Y232D02*
X1756Y232D01*
X1819Y232D02*
X1847Y232D01*
X1930Y232D02*
X1958Y232D01*
X2022Y232D02*
X2050Y232D01*
X1522Y231D02*
X1549Y231D01*
X1614Y231D02*
X1642Y231D01*
X1728Y231D02*
X1755Y231D01*
X1820Y231D02*
X1848Y231D01*
X1930Y231D02*
X1958Y231D01*
X2022Y231D02*
X2050Y231D01*
X1521Y230D02*
X1549Y230D01*
X1614Y230D02*
X1642Y230D01*
X1727Y230D02*
X1755Y230D01*
X1820Y230D02*
X1848Y230D01*
X1930Y230D02*
X1958Y230D01*
X2023Y230D02*
X2050Y230D01*
X1521Y229D02*
X1549Y229D01*
X1615Y229D02*
X1642Y229D01*
X1727Y229D02*
X1755Y229D01*
X1821Y229D02*
X1848Y229D01*
X1930Y229D02*
X1957Y229D01*
X2023Y229D02*
X2051Y229D01*
X1521Y228D02*
X1548Y228D01*
X1615Y228D02*
X1642Y228D01*
X1727Y228D02*
X1754Y228D01*
X1821Y228D02*
X1848Y228D01*
X1930Y228D02*
X1957Y228D01*
X2023Y228D02*
X2051Y228D01*
X1521Y227D02*
X1548Y227D01*
X1615Y227D02*
X1642Y227D01*
X1727Y227D02*
X1754Y227D01*
X1821Y227D02*
X1848Y227D01*
X1929Y227D02*
X1957Y227D01*
X2024Y227D02*
X2051Y227D01*
X1521Y226D02*
X1548Y226D01*
X1616Y226D02*
X1643Y226D01*
X1727Y226D02*
X1754Y226D01*
X1822Y226D02*
X1849Y226D01*
X1929Y226D02*
X1956Y226D01*
X2024Y226D02*
X2051Y226D01*
X1521Y225D02*
X1548Y225D01*
X1616Y225D02*
X1643Y225D01*
X1727Y225D02*
X1754Y225D01*
X1822Y225D02*
X1849Y225D01*
X1929Y225D02*
X1956Y225D01*
X2024Y225D02*
X2051Y225D01*
X1520Y224D02*
X1547Y224D01*
X1616Y224D02*
X1643Y224D01*
X1726Y224D02*
X1753Y224D01*
X1822Y224D02*
X1849Y224D01*
X1929Y224D02*
X1956Y224D01*
X2024Y224D02*
X2051Y224D01*
X1520Y223D02*
X1547Y223D01*
X1616Y223D02*
X1643Y223D01*
X1726Y223D02*
X1753Y223D01*
X1822Y223D02*
X1849Y223D01*
X1929Y223D02*
X1956Y223D01*
X2025Y223D02*
X2051Y223D01*
X1520Y222D02*
X1547Y222D01*
X1616Y222D02*
X1643Y222D01*
X1726Y222D02*
X1753Y222D01*
X1822Y222D02*
X1849Y222D01*
X1929Y222D02*
X1956Y222D01*
X2025Y222D02*
X2051Y222D01*
X1520Y221D02*
X1547Y221D01*
X1616Y221D02*
X1643Y221D01*
X1726Y221D02*
X1753Y221D01*
X1822Y221D02*
X1849Y221D01*
X1929Y221D02*
X1956Y221D01*
X2025Y221D02*
X2052Y221D01*
X1520Y220D02*
X1547Y220D01*
X1616Y220D02*
X1643Y220D01*
X1726Y220D02*
X1753Y220D01*
X1822Y220D02*
X1849Y220D01*
X1929Y220D02*
X1955Y220D01*
X2025Y220D02*
X2052Y220D01*
X1520Y219D02*
X1547Y219D01*
X1616Y219D02*
X1643Y219D01*
X1726Y219D02*
X1753Y219D01*
X1822Y219D02*
X1849Y219D01*
X1929Y219D02*
X1955Y219D01*
X2025Y219D02*
X2052Y219D01*
X1520Y218D02*
X1547Y218D01*
X1616Y218D02*
X1643Y218D01*
X1726Y218D02*
X1753Y218D01*
X1822Y218D02*
X1849Y218D01*
X1929Y218D02*
X1955Y218D01*
X2025Y218D02*
X2052Y218D01*
X1520Y217D02*
X1547Y217D01*
X1616Y217D02*
X1643Y217D01*
X1726Y217D02*
X1753Y217D01*
X1822Y217D02*
X1849Y217D01*
X1929Y217D02*
X1955Y217D01*
X2025Y217D02*
X2052Y217D01*
X1520Y216D02*
X1547Y216D01*
X1616Y216D02*
X1643Y216D01*
X1726Y216D02*
X1753Y216D01*
X1822Y216D02*
X1849Y216D01*
X1929Y216D02*
X1955Y216D01*
X2025Y216D02*
X2052Y216D01*
X1520Y215D02*
X1547Y215D01*
X1616Y215D02*
X1643Y215D01*
X1726Y215D02*
X1753Y215D01*
X1822Y215D02*
X1849Y215D01*
X1929Y215D02*
X1956Y215D01*
X2025Y215D02*
X2052Y215D01*
X1520Y214D02*
X1547Y214D01*
X1616Y214D02*
X1643Y214D01*
X1726Y214D02*
X1753Y214D01*
X1822Y214D02*
X1849Y214D01*
X1929Y214D02*
X1956Y214D01*
X2025Y214D02*
X2051Y214D01*
X1520Y213D02*
X1547Y213D01*
X1616Y213D02*
X1643Y213D01*
X1726Y213D02*
X1753Y213D01*
X1822Y213D02*
X1849Y213D01*
X1929Y213D02*
X1956Y213D01*
X2025Y213D02*
X2051Y213D01*
X1520Y212D02*
X1547Y212D01*
X1616Y212D02*
X1643Y212D01*
X1726Y212D02*
X1753Y212D01*
X1822Y212D02*
X1849Y212D01*
X1929Y212D02*
X1956Y212D01*
X2024Y212D02*
X2051Y212D01*
X1521Y211D02*
X1548Y211D01*
X1616Y211D02*
X1643Y211D01*
X1727Y211D02*
X1754Y211D01*
X1822Y211D02*
X1849Y211D01*
X1929Y211D02*
X1956Y211D01*
X2024Y211D02*
X2051Y211D01*
X1521Y210D02*
X1548Y210D01*
X1616Y210D02*
X1643Y210D01*
X1727Y210D02*
X1754Y210D01*
X1822Y210D02*
X1849Y210D01*
X1929Y210D02*
X1956Y210D01*
X2024Y210D02*
X2051Y210D01*
X1521Y209D02*
X1548Y209D01*
X1615Y209D02*
X1642Y209D01*
X1727Y209D02*
X1754Y209D01*
X1821Y209D02*
X1848Y209D01*
X1929Y209D02*
X1957Y209D01*
X2024Y209D02*
X2051Y209D01*
X1521Y208D02*
X1548Y208D01*
X1615Y208D02*
X1642Y208D01*
X1727Y208D02*
X1754Y208D01*
X1821Y208D02*
X1848Y208D01*
X1930Y208D02*
X1957Y208D01*
X2023Y208D02*
X2051Y208D01*
X1521Y207D02*
X1549Y207D01*
X1615Y207D02*
X1642Y207D01*
X1727Y207D02*
X1755Y207D01*
X1821Y207D02*
X1848Y207D01*
X1930Y207D02*
X1957Y207D01*
X2023Y207D02*
X2051Y207D01*
X1521Y206D02*
X1549Y206D01*
X1614Y206D02*
X1642Y206D01*
X1727Y206D02*
X1755Y206D01*
X1820Y206D02*
X1848Y206D01*
X1930Y206D02*
X1958Y206D01*
X2023Y206D02*
X2050Y206D01*
X1522Y205D02*
X1549Y205D01*
X1614Y205D02*
X1642Y205D01*
X1728Y205D02*
X1755Y205D01*
X1820Y205D02*
X1848Y205D01*
X1930Y205D02*
X1958Y205D01*
X2022Y205D02*
X2050Y205D01*
X1522Y204D02*
X1550Y204D01*
X1613Y204D02*
X1642Y204D01*
X1728Y204D02*
X1756Y204D01*
X1819Y204D02*
X1847Y204D01*
X1930Y204D02*
X1958Y204D01*
X2022Y204D02*
X2050Y204D01*
X1522Y203D02*
X1550Y203D01*
X1613Y203D02*
X1641Y203D01*
X1728Y203D02*
X1756Y203D01*
X1819Y203D02*
X1847Y203D01*
X1931Y203D02*
X1959Y203D01*
X2021Y203D02*
X2050Y203D01*
X1522Y202D02*
X1551Y202D01*
X1613Y202D02*
X1641Y202D01*
X1728Y202D02*
X1757Y202D01*
X1818Y202D02*
X1847Y202D01*
X1931Y202D02*
X1959Y202D01*
X2021Y202D02*
X2049Y202D01*
X1523Y201D02*
X1551Y201D01*
X1612Y201D02*
X1641Y201D01*
X1729Y201D02*
X1757Y201D01*
X1818Y201D02*
X1847Y201D01*
X1931Y201D02*
X1960Y201D01*
X2020Y201D02*
X2049Y201D01*
X1523Y200D02*
X1552Y200D01*
X1611Y200D02*
X1641Y200D01*
X1729Y200D02*
X1758Y200D01*
X1817Y200D02*
X1846Y200D01*
X1931Y200D02*
X1960Y200D01*
X2020Y200D02*
X2049Y200D01*
X1523Y199D02*
X1553Y199D01*
X1611Y199D02*
X1640Y199D01*
X1729Y199D02*
X1759Y199D01*
X1817Y199D02*
X1846Y199D01*
X1932Y199D02*
X1961Y199D01*
X2019Y199D02*
X2049Y199D01*
X1524Y198D02*
X1553Y198D01*
X1610Y198D02*
X1640Y198D01*
X1729Y198D02*
X1759Y198D01*
X1816Y198D02*
X1846Y198D01*
X1932Y198D02*
X1962Y198D01*
X2019Y198D02*
X2048Y198D01*
X1524Y197D02*
X1554Y197D01*
X1609Y197D02*
X1640Y197D01*
X1730Y197D02*
X1760Y197D01*
X1815Y197D02*
X1845Y197D01*
X1932Y197D02*
X1963Y197D01*
X2018Y197D02*
X2048Y197D01*
X1524Y196D02*
X1555Y196D01*
X1608Y196D02*
X1639Y196D01*
X1730Y196D02*
X1761Y196D01*
X1814Y196D02*
X1845Y196D01*
X1933Y196D02*
X1963Y196D01*
X2017Y196D02*
X2048Y196D01*
X1525Y195D02*
X1556Y195D01*
X1608Y195D02*
X1639Y195D01*
X1731Y195D02*
X1762Y195D01*
X1814Y195D02*
X1845Y195D01*
X1933Y195D02*
X1964Y195D01*
X2016Y195D02*
X2047Y195D01*
X1525Y194D02*
X1557Y194D01*
X1607Y194D02*
X1638Y194D01*
X1731Y194D02*
X1763Y194D01*
X1813Y194D02*
X1844Y194D01*
X1933Y194D02*
X1965Y194D01*
X2015Y194D02*
X2047Y194D01*
X1525Y193D02*
X1558Y193D01*
X1606Y193D02*
X1638Y193D01*
X1731Y193D02*
X1764Y193D01*
X1812Y193D02*
X1844Y193D01*
X1934Y193D02*
X1966Y193D01*
X2014Y193D02*
X2046Y193D01*
X1526Y192D02*
X1559Y192D01*
X1605Y192D02*
X1637Y192D01*
X1732Y192D02*
X1765Y192D01*
X1811Y192D02*
X1843Y192D01*
X1934Y192D02*
X1967Y192D01*
X2013Y192D02*
X2046Y192D01*
X1526Y191D02*
X1560Y191D01*
X1603Y191D02*
X1637Y191D01*
X1732Y191D02*
X1766Y191D01*
X1809Y191D02*
X1843Y191D01*
X1935Y191D02*
X1968Y191D01*
X2012Y191D02*
X2045Y191D01*
X1527Y190D02*
X1561Y190D01*
X1602Y190D02*
X1636Y190D01*
X1733Y190D02*
X1767Y190D01*
X1808Y190D02*
X1842Y190D01*
X1935Y190D02*
X1970Y190D01*
X2011Y190D02*
X2045Y190D01*
X1527Y189D02*
X1563Y189D01*
X1601Y189D02*
X1636Y189D01*
X1733Y189D02*
X1769Y189D01*
X1807Y189D02*
X1842Y189D01*
X1936Y189D02*
X1971Y189D01*
X2009Y189D02*
X2044Y189D01*
X1528Y188D02*
X1565Y188D01*
X1599Y188D02*
X1635Y188D01*
X1734Y188D02*
X1770Y188D01*
X1805Y188D02*
X1841Y188D01*
X1936Y188D02*
X1973Y188D01*
X2007Y188D02*
X2044Y188D01*
X1529Y187D02*
X1567Y187D01*
X1597Y187D02*
X1635Y187D01*
X1734Y187D02*
X1773Y187D01*
X1803Y187D02*
X1841Y187D01*
X1937Y187D02*
X1975Y187D01*
X2005Y187D02*
X2043Y187D01*
X1529Y186D02*
X1569Y186D01*
X1594Y186D02*
X1634Y186D01*
X1735Y186D02*
X1775Y186D01*
X1800Y186D02*
X1840Y186D01*
X1938Y186D02*
X1977Y186D01*
X2003Y186D02*
X2043Y186D01*
X1530Y185D02*
X1572Y185D01*
X1592Y185D02*
X1634Y185D01*
X1736Y185D02*
X1778Y185D01*
X1798Y185D02*
X1840Y185D01*
X1938Y185D02*
X1980Y185D01*
X2000Y185D02*
X2042Y185D01*
X1530Y184D02*
X1577Y184D01*
X1587Y184D02*
X1633Y184D01*
X1736Y184D02*
X1783Y184D01*
X1793Y184D02*
X1839Y184D01*
X1939Y184D02*
X1985Y184D01*
X1995Y184D02*
X2041Y184D01*
X1531Y183D02*
X1632Y183D01*
X1737Y183D02*
X1838Y183D01*
X1939Y183D02*
X2041Y183D01*
X1532Y182D02*
X1632Y182D01*
X1738Y182D02*
X1838Y182D01*
X1940Y182D02*
X2040Y182D01*
X1532Y181D02*
X1631Y181D01*
X1738Y181D02*
X1837Y181D01*
X1941Y181D02*
X2039Y181D01*
X1533Y180D02*
X1630Y180D01*
X1739Y180D02*
X1836Y180D01*
X1942Y180D02*
X2039Y180D01*
X1534Y179D02*
X1629Y179D01*
X1740Y179D02*
X1835Y179D01*
X1942Y179D02*
X2038Y179D01*
X1535Y178D02*
X1629Y178D01*
X1741Y178D02*
X1835Y178D01*
X1943Y178D02*
X2037Y178D01*
X1536Y177D02*
X1628Y177D01*
X1742Y177D02*
X1834Y177D01*
X1944Y177D02*
X2036Y177D01*
X1537Y176D02*
X1627Y176D01*
X1743Y176D02*
X1833Y176D01*
X1945Y176D02*
X2035Y176D01*
X1538Y175D02*
X1626Y175D01*
X1743Y175D02*
X1832Y175D01*
X1946Y175D02*
X2034Y175D01*
X1538Y174D02*
X1625Y174D01*
X1744Y174D02*
X1831Y174D01*
X1947Y174D02*
X2033Y174D01*
X1540Y173D02*
X1624Y173D01*
X1746Y173D02*
X1830Y173D01*
X1948Y173D02*
X2032Y173D01*
X1541Y172D02*
X1623Y172D01*
X1747Y172D02*
X1829Y172D01*
X1949Y172D02*
X2031Y172D01*
X1542Y171D02*
X1622Y171D01*
X1748Y171D02*
X1828Y171D01*
X1950Y171D02*
X2030Y171D01*
X1543Y170D02*
X1620Y170D01*
X1749Y170D02*
X1826Y170D01*
X1951Y170D02*
X2029Y170D01*
X1544Y169D02*
X1619Y169D01*
X1750Y169D02*
X1825Y169D01*
X1953Y169D02*
X2028Y169D01*
X1546Y168D02*
X1618Y168D01*
X1752Y168D02*
X1824Y168D01*
X1954Y168D02*
X2026Y168D01*
X1547Y167D02*
X1616Y167D01*
X1753Y167D02*
X1822Y167D01*
X1955Y167D02*
X2025Y167D01*
X1548Y166D02*
X1615Y166D01*
X1754Y166D02*
X1821Y166D01*
X1957Y166D02*
X2023Y166D01*
X1550Y165D02*
X1613Y165D01*
X1756Y165D02*
X1819Y165D01*
X1959Y165D02*
X2022Y165D01*
X1552Y164D02*
X1612Y164D01*
X1758Y164D02*
X1818Y164D01*
X1960Y164D02*
X2020Y164D01*
X1554Y163D02*
X1610Y163D01*
X1760Y163D02*
X1816Y163D01*
X1962Y163D02*
X2018Y163D01*
X1556Y162D02*
X1608Y162D01*
X1762Y162D02*
X1814Y162D01*
X1964Y162D02*
X2016Y162D01*
X1558Y161D02*
X1606Y161D01*
X1764Y161D02*
X1812Y161D01*
X1966Y161D02*
X2014Y161D01*
X1560Y160D02*
X1603Y160D01*
X1766Y160D02*
X1809Y160D01*
X1969Y160D02*
X2012Y160D01*
X1563Y159D02*
X1600Y159D01*
X1769Y159D02*
X1806Y159D01*
X1972Y159D02*
X2009Y159D01*
X1567Y158D02*
X1597Y158D01*
X1773Y158D02*
X1803Y158D01*
X1975Y158D02*
X2005Y158D01*
X1571Y157D02*
X1592Y157D01*
X1777Y157D02*
X1798Y157D01*
X1980Y157D02*
X2001Y157D01*
X1581Y156D02*
X1583Y156D01*
X1787Y156D02*
X1789Y156D01*
X1989Y156D02*
X1991Y156D01*
D02*
G04 End of Copper1*
M02*